<svg xmlns="http://www.w3.org/2000/svg" viewBox="0 0 512 512">
  <rect width="512" height="512" rx="112" fill="#eaf4ff"/>
  <path d="M348 158c-22-30-57-48-101-48-67 0-115 34-115 88 0 49 34 70 107 84 49 10 65 20 65 39 0 22-21 35-56 35-43 0-78-18-106-48l-49 54c36 42 89 64 152 64 78 0 127-38 127-100 0-52-35-76-111-91-45-9-61-18-61-36 0-20 20-32 50-32 34 0 62 13 84 39z" fill="#1877e8"/>
  <path d="M76 268h292" fill="none" stroke="#0b2f66" stroke-linecap="round" stroke-width="28"/>
  <path d="m350 222 86 46-86 46" fill="none" stroke="#0b2f66" stroke-linecap="round" stroke-linejoin="round" stroke-width="28"/>
</svg>
